# xmcd CD database file
#
# Track frame offsets:
#	150
#	11922
#	26342
#	38710
#	41510
#	57460
#	73781
#	96970
#	117317
#	127104
#	152544
#	155282
#	159651
#	181907
#	191535
#
# Disc length: 2817 seconds
#
# Revision: 0
# Processed by: cddbd v1.5PL3 Copyright (c) Steve Scherf et al.
# Submitted via: CDex 1.51
#
DISCID=c50aff0f
DTITLE=Johannes Faber und Thomas Stabenow - Nowhere Blues
DYEAR=2002
DGENRE=Jazz
TTITLE0=Groovin' High
TTITLE1=I'm Confession' That I Love You
TTITLE2=Morning Mood
TTITLE3=Intro - It Ain't Necessarily So
TTITLE4=It Ain't Necessarily So
TTITLE5=Joy Spring
TTITLE6=The Girl I Love
TTITLE7=Sweet Lorraine
TTITLE8=Via Aurelia
TTITLE9=Nowhere Blues
TTITLE10=Cherokee
TTITLE11=Intro - Nature Boy
TTITLE12=Nature Boy
TTITLE13=Apple Blossom
TTITLE14=Smile
EXTD=YEAR: 2002
EXTT0=
EXTT1=
EXTT2=
EXTT3=
EXTT4=
EXTT5=
EXTT6=
EXTT7=
EXTT8=
EXTT9=
EXTT10=
EXTT11=
EXTT12=
EXTT13=
EXTT14=
PLAYORDER=
